simulation
nRows=68
nColumns=15
endheader
time  TH_x TH_y TH_z SC_y  SC_z  SC_x  AC_y  AC_z  AC_x  GH_y  GH_z  GH_yy  EL_x  PS_y
0.249925  0.000000  0.000000  0.000000  -34.940326  -7.455978  -15.314505  59.845054  21.800835  5.905289  14.920856  14.383781  -5.461156  19.383919  124.299191
0.250224  0.000000  0.000000  0.000000  -34.940326  -7.455978  -11.981172  60.460712  18.909403  4.136017  14.920856  14.383781  -5.461156  19.383919  124.299191
0.250524  0.000000  0.000000  0.000000  -34.940326  -7.455978  -8.647839  60.973535  16.001793  2.427083  14.920856  14.383781  -5.461156  19.383919  124.299191
0.250823  0.000000  0.000000  0.000000  -34.940326  -7.455978  -5.314505  61.390431  13.081065  0.767321  14.920856  14.383781  -5.461156  19.383919  124.299191
0.251122  0.000000  0.000000  0.000000  -34.940326  -7.455978  -1.981172  61.716897  10.149986  -0.853485  14.920856  14.383781  -5.461156  19.383919  124.299191
0.251422  0.000000  0.000000  0.000000  -34.940326  -7.455978  1.352161  61.957162  7.211100  -2.444813  14.920856  14.383781  -5.461156  19.383919  124.299191
0.251721  0.000000  0.000000  0.000000  -34.940326  -7.455978  4.685495  62.114295  4.266780  -4.015584  14.920856  14.383781  -5.461156  19.383919  124.299191
0.252020  0.000000  0.000000  0.000000  -34.940326  -7.455978  8.018828  62.190280  1.319291  -5.574341  14.920856  14.383781  -5.461156  19.383919  124.299191
0.252320  0.000000  0.000000  0.000000  -34.940326  -7.455978  11.352161  62.186073  -1.629173  -7.129406  14.920856  14.383781  -5.461156  19.383919  124.299191
0.252619  0.000000  0.000000  0.000000  -34.940326  -7.455978  14.685495  62.101621  -4.576433  -8.689031  14.920856  14.383781  -5.461156  19.383919  124.299191
0.252918  0.000000  0.000000  0.000000  -31.106594  -0.643715  5.240422  53.685320  4.174465  -6.538523  26.157246  20.373653  -11.988089  21.564820  126.232302
0.253218  0.000000  0.000000  0.000000  -20.673754  -7.180186  -21.824881  51.606401  15.768528  17.983917  39.980213  15.132075  -20.961117  13.764769  132.273127
0.253517  0.000000  0.000000  0.000000  -20.673754  -7.180186  -36.824881  47.759920  27.239490  28.399801  39.980213  15.132075  -20.961117  13.764769  132.273127
0.253816  0.000000  0.000000  0.000000  -20.673754  -7.180186  -33.491547  48.841496  24.750247  25.932979  39.980213  15.132075  -20.961117  13.764769  132.273127
0.254116  0.000000  0.000000  0.000000  -20.673754  -7.180186  -30.158214  49.786023  22.222222  23.563804  39.980213  15.132075  -20.961117  13.764769  132.273127
0.254415  0.000000  0.000000  0.000000  -20.673754  -7.180186  -26.824881  50.602914  19.661122  21.279101  39.980213  15.132075  -20.961117  13.764769  132.273127
0.254714  0.000000  0.000000  0.000000  -20.673754  -7.180186  -23.491547  51.300307  17.072070  19.066642  39.980213  15.132075  -20.961117  13.764769  132.273127
0.255013  0.000000  0.000000  0.000000  -20.673754  -7.180186  -20.158214  51.885127  14.459704  16.915044  39.980213  15.132075  -20.961117  13.764769  132.273127
0.255313  0.000000  0.000000  0.000000  -20.673754  -7.180186  -16.824881  52.363157  11.828258  14.813656  39.980213  15.132075  -20.961117  13.764769  132.273127
0.255612  0.000000  0.000000  0.000000  -20.673754  -7.180186  -13.491547  52.739098  9.181647  12.752441  39.980213  15.132075  -20.961117  13.764769  132.273127
0.255911  0.000000  0.000000  0.000000  -20.673754  -7.180186  -10.158214  53.016630  6.523530  10.721858  39.980213  15.132075  -20.961117  13.764769  132.273127
0.256211  0.000000  0.000000  0.000000  -20.673754  -7.180186  -6.824881  53.198455  3.857377  8.712750  39.980213  15.132075  -20.961117  13.764769  132.273127
0.256510  0.000000  0.000000  0.000000  -34.410127  1.505618  18.585999  55.421774  6.647341  -2.383158  23.672824  19.467270  -15.565179  13.554935  124.852360
0.256809  0.000000  0.000000  0.000000  -34.410127  1.505618  3.585999  53.434172  18.873522  6.547208  23.672824  19.467270  -15.565179  13.554935  124.852360
0.257109  0.000000  0.000000  0.000000  -34.410127  1.505618  6.919333  54.056991  16.185220  4.480151  23.672824  19.467270  -15.565179  13.554935  124.852360
0.257408  0.000000  0.000000  0.000000  -34.410127  1.505618  10.252666  54.572023  13.477496  2.468865  23.672824  19.467270  -15.565179  13.554935  124.852360
0.257707  0.000000  0.000000  0.000000  -34.410127  1.505618  13.585999  54.984837  10.754130  0.502781  23.672824  19.467270  -15.565179  13.554935  124.852360
0.258007  0.000000  0.000000  0.000000  -34.410127  1.505618  16.919333  55.299853  8.018619  -1.428024  23.672824  19.467270  -15.565179  13.554935  124.852360
0.258306  0.000000  0.000000  0.000000  -34.410127  1.505618  20.252666  55.520419  5.274242  -3.332974  23.672824  19.467270  -15.565179  13.554935  124.852360
0.258605  0.000000  0.000000  0.000000  -34.410127  1.505618  23.585999  55.648864  2.524119  -5.221124  23.672824  19.467270  -15.565179  13.554935  124.852360
0.258905  0.000000  0.000000  0.000000  -34.410127  1.505618  26.919333  55.686538  -0.228730  -7.101293  23.672824  19.467270  -15.565179  13.554935  124.852360
0.259204  0.000000  0.000000  0.000000  -34.410127  1.505618  30.252666  55.633835  -2.981332  -8.982183  23.672824  19.467270  -15.565179  13.554935  124.852360
0.259503  0.000000  0.000000  0.000000  -34.410127  1.505618  33.585999  55.490203  -5.730712  -10.872510  23.672824  19.467270  -15.565179  13.554935  124.852360
0.259802  0.000000  0.000000  0.000000  -22.160855  -1.806493  8.000735  59.372372  11.487959  5.280483  14.519739  29.020490  -7.388649  17.657789  126.990978
0.260102  0.000000  0.000000  0.000000  -22.160855  -1.806493  -6.999265  56.801487  24.244221  13.595250  14.519739  29.020490  -7.388649  17.657789  126.990978
0.260401  0.000000  0.000000  0.000000  -22.160855  -1.806493  -3.665932  57.562730  21.442603  11.635113  14.519739  29.020490  -7.388649  17.657789  126.990978
0.260700  0.000000  0.000000  0.000000  -22.160855  -1.806493  -0.332598  58.208960  18.619031  9.749173  14.519739  29.020490  -7.388649  17.657789  126.990978
0.261000  0.000000  0.000000  0.000000  -22.160855  -1.806493  3.000735  58.748514  15.777293  7.925069  14.519739  29.020490  -7.388649  17.657789  126.990978
0.261299  0.000000  0.000000  0.000000  -22.160855  -1.806493  6.334068  59.188213  12.920782  6.151545  14.519739  29.020490  -7.388649  17.657789  126.990978
0.261598  0.000000  0.000000  0.000000  -22.160855  -1.806493  9.667402  59.533517  10.052578  4.418239  14.519739  29.020490  -7.388649  17.657789  126.990978
0.261898  0.000000  0.000000  0.000000  -22.160855  -1.806493  13.000735  59.788649  7.175522  2.715494  14.519739  29.020490  -7.388649  17.657789  126.990978
0.262197  0.000000  0.000000  0.000000  -22.160855  -1.806493  16.334068  59.956691  4.292273  1.034180  14.519739  29.020490  -7.388649  17.657789  126.990978
0.262496  0.000000  0.000000  0.000000  -22.160855  -1.806493  19.667402  60.039657  1.405371  -0.634465  14.519739  29.020490  -7.388649  17.657789  126.990978
0.262796  0.000000  0.000000  0.000000  -22.160855  -1.806493  23.000735  60.038533  -1.482720  -2.298985  14.519739  29.020490  -7.388649  17.657789  126.990978
0.263095  0.000000  0.000000  0.000000  -25.447109  -4.207690  6.072456  67.023673  14.669525  7.878875  18.047080  13.326006  -14.229565  13.087873  126.492005
0.263394  0.000000  0.000000  0.000000  -25.447109  -4.207690  -8.927544  64.585563  28.367998  14.472018  18.047080  13.326006  -14.229565  13.087873  126.492005
0.263694  0.000000  0.000000  0.000000  -25.447109  -4.207690  -5.594210  65.300680  25.348160  12.889766  18.047080  13.326006  -14.229565  13.087873  126.492005
0.263993  0.000000  0.000000  0.000000  -25.447109  -4.207690  -2.260877  65.908945  22.312243  11.384863  18.047080  13.326006  -14.229565  13.087873  126.492005
0.264292  0.000000  0.000000  0.000000  -25.447109  -4.207690  1.072456  66.420447  19.263036  9.944204  18.047080  13.326006  -14.229565  13.087873  126.492005
0.264591  0.000000  0.000000  0.000000  -25.447109  -4.207690  4.405790  66.843350  16.202961  8.556290  18.047080  13.326006  -14.229565  13.087873  126.492005
0.264891  0.000000  0.000000  0.000000  -25.447109  -4.207690  7.739123  67.184178  13.134153  7.210893  18.047080  13.326006  -14.229565  13.087873  126.492005
0.265190  0.000000  0.000000  0.000000  -25.447109  -4.207690  11.072456  67.448040  10.058528  5.898775  18.047080  13.326006  -14.229565  13.087873  126.492005
0.265489  0.000000  0.000000  0.000000  -25.447109  -4.207690  14.405790  67.638800  6.977832  4.611450  18.047080  13.326006  -14.229565  13.087873  126.492005
0.265789  0.000000  0.000000  0.000000  -25.447109  -4.207690  17.739123  67.759199  3.893695  3.340981  18.047080  13.326006  -14.229565  13.087873  126.492005
0.266088  0.000000  0.000000  0.000000  -25.447109  -4.207690  21.072456  67.810948  0.807663  2.079799  18.047080  13.326006  -14.229565  13.087873  126.492005
0.266387  0.000000  0.000000  0.000000  -20.213730  -1.186836  -7.480973  55.203966  14.671808  13.821464  11.317351  29.634624  -5.426128  26.663634  131.267846
0.266687  0.000000  0.000000  0.000000  -20.213730  -1.186836  -22.480973  51.810297  26.760399  23.342693  11.317351  29.634624  -5.426128  26.663634  131.267846
0.266986  0.000000  0.000000  0.000000  -20.213730  -1.186836  -19.147640  52.780412  24.122779  21.085297  11.317351  29.634624  -5.426128  26.663634  131.267846
0.267285  0.000000  0.000000  0.000000  -20.213730  -1.186836  -15.814306  53.619522  21.453334  18.919673  11.317351  29.634624  -5.426128  26.663634  131.267846
0.267585  0.000000  0.000000  0.000000  -20.213730  -1.186836  -12.480973  54.337298  18.757034  16.832346  11.317351  29.634624  -5.426128  26.663634  131.267846
0.267884  0.000000  0.000000  0.000000  -20.213730  -1.186836  -9.147640  54.941916  16.038312  14.810987  11.317351  29.634624  -5.426128  26.663634  131.267846
0.268183  0.000000  0.000000  0.000000  -20.213730  -1.186836  -5.814306  55.440176  13.301168  12.844243  11.317351  29.634624  -5.426128  26.663634  131.267846
0.268482  0.000000  0.000000  0.000000  -20.213730  -1.186836  -2.480973  55.837617  10.549248  10.921569  11.317351  29.634624  -5.426128  26.663634  131.267846
0.268782  0.000000  0.000000  0.000000  -20.213730  -1.186836  0.852360  56.138611  7.785923  9.033076  11.317351  29.634624  -5.426128  26.663634  131.267846
0.269081  0.000000  0.000000  0.000000  -20.213730  -1.186836  4.185694  56.346439  5.014353  7.169378  11.317351  29.634624  -5.426128  26.663634  131.267846
0.269380  0.000000  0.000000  0.000000  -20.213730  -1.186836  7.519027  56.463350  2.237550  5.321457  11.317351  29.634624  -5.426128  26.663634  131.267846
0.269680  0.000000  0.000000  0.000000  -45.700157  -2.660153  -12.016866  57.142708  15.815625  15.074260  23.525492  18.760527  -19.047077  21.554211  123.945966
0.269979  0.000000  0.000000  0.000000  -45.700157  -2.660153  -27.016866  53.681356  28.192787  24.241895  23.525492  18.760527  -19.047077  21.554211  123.945966
